<?xml version="1.0" encoding="UTF-8"?>
<svg version="1.1" xmlns="http://www.w3.org/2000/svg" width="20" height="20">
<path d="M0 0 C2.81148414 1.7389315 3.34732692 2.91501025 5 6 C4.95869392 8.74169075 4.44566495 11.28144383 4 14 C5.33378575 15.8354799 5.33378575 15.8354799 7 17 C7 17.99 7 18.98 7 20 C6.401875 19.690625 5.80375 19.38125 5.1875 19.0625 C2.09937414 17.56255316 0.54349589 16.88184872 -2.875 17.625 C-6.7081067 18.0849728 -7.96641613 17.2751879 -11 15 C-13.39286884 12.60713116 -13.32050616 11.90552906 -13.375 8.625 C-13.28090447 5.549562 -13.09424854 4.16800827 -11.5625 1.4375 C-7.71019451 -0.72354942 -4.29956503 -0.99279477 0 0 Z M-10 5 C-10.33333333 8.5 -10.33333333 8.5 -10 12 C-8.05925114 14.34886432 -8.05925114 14.34886432 -4.5625 14.4375 C-0.91303262 14.37417392 -0.91303262 14.37417392 1.0625 11.8125 C2.28023916 9.02600157 2.28023916 9.02600157 1.25 6.25 C0.18887078 4.09729707 0.18887078 4.09729707 -1 3 C-6.02509316 2.45584266 -6.02509316 2.45584266 -10 5 Z " fill="#FFFFFF" transform="translate(13,0)"/>
</svg>
